<svg xmlns="http://www.w3.org/2000/svg" xmlns:xlink="http://www.w3.org/1999/xlink" width="500" zoomAndPan="magnify" viewBox="0 0 375 374.999991" height="500" preserveAspectRatio="xMidYMid meet" version="1.0"><defs><g/><clipPath id="90f68a4c46"><path d="M 15.6875 95.789062 L 359.1875 95.789062 L 359.1875 317 L 15.6875 317 Z M 15.6875 95.789062 " clip-rule="nonzero"/></clipPath></defs><path fill="#ffffff" d="M 218.25 256.78125 L 53.761719 256.574219 C 34.273438 256.554688 18.488281 240.75 18.488281 221.265625 L 18.488281 133.914062 C 18.488281 114.414062 34.296875 98.605469 53.796875 98.605469 L 321.203125 98.605469 C 340.703125 98.605469 356.511719 114.414062 356.511719 133.914062 L 356.511719 221.523438 C 356.511719 241.035156 340.683594 256.847656 321.171875 256.832031 L 279.207031 256.78125 L 289.46875 310.09375 Z M 218.25 256.78125 " fill-opacity="1" fill-rule="nonzero"/><g clip-path="url(#90f68a4c46)"><path fill="#ffffff" d="M 291.101562 316.671875 L 214.828125 259.582031 L 53.757812 259.375 C 43.585938 259.367188 34.023438 255.394531 26.835938 248.199219 C 19.648438 241.003906 15.6875 231.4375 15.6875 221.265625 L 15.6875 133.914062 C 15.6875 112.902344 32.785156 95.804688 53.796875 95.804688 L 321.203125 95.804688 C 342.214844 95.804688 359.3125 112.902344 359.3125 133.914062 L 359.3125 221.523438 C 359.3125 231.707031 355.34375 241.28125 348.140625 248.484375 C 340.941406 255.675781 331.375 259.636719 321.203125 259.636719 L 321.171875 259.636719 C 321.171875 259.636719 280.109375 259.585938 280.109375 259.585938 Z M 273.328125 253.984375 L 321.175781 254.035156 L 321.203125 254.035156 C 329.878906 254.035156 338.039062 250.65625 344.179688 244.523438 C 350.328125 238.378906 353.710938 230.210938 353.710938 221.523438 L 353.710938 133.914062 C 353.710938 115.988281 339.128906 101.40625 321.203125 101.40625 L 53.796875 101.40625 C 35.871094 101.40625 21.285156 115.988281 21.285156 133.914062 L 21.285156 221.265625 C 21.285156 239.171875 35.855469 253.757812 53.761719 253.777344 L 216.691406 253.984375 L 282.863281 303.515625 L 273.328125 253.980469 Z M 273.328125 253.984375 " fill-opacity="1" fill-rule="nonzero"/></g><g fill="#8B9B7F" fill-opacity="1"><g transform="translate(105.924703, 221.125549)"><g><path d="M 2.5625 0 L 35.484375 -95.625 L 61.03125 -95.625 L 94.59375 0 L 72.78125 0 L 57.5 -46.203125 C 55.664062 -52.191406 53.796875 -58.660156 51.890625 -65.609375 C 49.984375 -72.566406 47.960938 -80.21875 45.828125 -88.5625 L 50.3125 -88.5625 C 48.21875 -80.21875 46.269531 -72.546875 44.46875 -65.546875 C 42.675781 -58.554688 40.878906 -52.109375 39.078125 -46.203125 L 24.125 0 Z M 23.171875 -21.890625 L 23.171875 -37.359375 L 74 -37.359375 L 74 -21.890625 Z M 23.171875 -21.890625 "/></g></g><g transform="translate(203.091809, 221.125549)"><g><path d="M 27.921875 -95.625 L 27.921875 0 L 8.28125 0 L 8.28125 -95.625 Z M 27.921875 -95.625 "/></g></g></g></svg>