<svg width="144" height="144" viewBox="0 0 144 144" fill="none" xmlns="http://www.w3.org/2000/svg">
<rect x="4" y="4" width="136" height="136" rx="68" fill="#2563EB"/>
<rect x="4" y="4" width="136" height="136" rx="68" stroke="#F1F5F9" stroke-width="8"/>
<path fill-rule="evenodd" clip-rule="evenodd" d="M54.0733 42.7836C57.8169 42.1686 61.4202 44.0021 63.9666 47.7106C65.8579 50.465 66.1598 54.5075 65.7962 58.58C65.4188 62.8057 64.2612 67.7018 62.5796 72.6888C61.848 74.8584 61.0096 77.0674 60.0801 79.2688C60.6015 78.6696 61.1507 77.9008 61.8563 76.913C62.0328 76.6658 62.2192 76.405 62.4173 76.1296C63.4111 74.7488 64.6117 73.1413 66.0884 71.6237C67.0559 70.629 68.2351 69.9077 69.6103 69.7144C70.993 69.52 72.2346 69.9074 73.2298 70.5069C73.5455 70.697 73.8458 70.9136 74.1309 71.1512C74.3175 70.9021 74.5106 70.6589 74.7101 70.4229C76.1143 68.7608 78.0357 67.2157 80.4333 66.7594C83.1861 66.2356 85.1903 67.8061 86.4244 69.0376C87.0317 69.6434 87.6122 70.3301 88.1183 70.9288C88.1463 70.9621 88.1743 70.9952 88.202 71.028C88.7583 71.6853 89.2474 72.2573 89.7527 72.7568C90.7717 73.7648 91.5205 74.1362 92.2485 74.1565C93.0133 74.1776 94.4722 73.8272 96.9069 71.6896C98.0135 70.7178 99.6986 70.8272 100.67 71.9338C101.642 73.0405 101.532 74.7256 100.426 75.6973C97.5271 78.2424 94.7954 79.5624 92.101 79.4877C89.3698 79.4122 87.3906 77.9221 86.0023 76.5488C85.3036 75.8578 84.669 75.1093 84.1303 74.4725L84.1119 74.4506C83.5509 73.7874 83.1007 73.2554 82.6573 72.813C81.7487 71.9064 81.4693 71.9874 81.4335 71.9978C81.4322 71.9984 81.4311 71.9986 81.4303 71.9989C80.6951 72.1386 79.7671 72.701 78.7842 73.8648C78.2866 74.4538 77.8261 75.1384 77.4207 75.8706C78.1922 77.6656 78.7026 79.6834 78.7285 81.4226C78.7421 82.3218 78.6325 83.4448 78.0975 84.4429C77.4663 85.6205 76.2695 86.5202 74.6663 86.5202C73.2989 86.5202 72.1186 85.8917 71.3605 84.8309C70.6986 83.9048 70.4791 82.8272 70.4167 81.9482C70.2903 80.1661 70.7346 78.0685 71.4485 76.1386C71.4554 76.12 71.4621 76.1016 71.469 76.0832C71.1018 75.5784 70.7533 75.2413 70.4781 75.0754C70.4109 75.0349 70.365 75.0146 70.337 75.0045C70.2749 75.0328 70.1314 75.1162 69.9109 75.3429C68.721 76.5658 67.7079 77.9085 66.7461 79.245C66.5904 79.4616 66.4325 79.6832 66.2728 79.9069C65.506 80.9829 64.7005 82.1128 63.9163 82.981C63.0218 83.9712 61.5624 85.3194 59.5107 85.3424C58.7766 85.3504 58.1024 85.1898 57.4838 84.9138C54.561 90.7693 51.0663 96.265 47.3192 100.448C46.3365 101.545 44.6506 101.637 43.5537 100.655C42.4567 99.672 42.3641 97.9861 43.3468 96.889C47.0263 92.7818 50.5396 87.12 53.4283 81.0642C43.7683 68.4992 42.6257 57.0601 45.8656 49.829C47.5257 46.1238 50.4637 43.3767 54.0733 42.7836ZM55.9019 75.4018C48.7331 64.9396 48.711 56.5219 50.7327 52.0098C51.8819 49.4449 53.5697 48.2712 54.9379 48.0464C56.1721 47.8437 57.8987 48.2955 59.5699 50.7295C60.348 51.8626 60.8264 54.2707 60.484 58.1057C60.1552 61.7875 59.1203 66.256 57.5258 70.9848C57.0322 72.4488 56.4888 73.9264 55.9019 75.4018Z" fill="white"/>
<path fill-rule="evenodd" clip-rule="evenodd" d="M61.333 96C61.333 94.5272 62.5269 93.3334 63.9997 93.3334H90.6663C92.1391 93.3334 93.333 94.5272 93.333 96C93.333 97.4728 92.1391 98.6667 90.6663 98.6667H63.9997C62.5269 98.6667 61.333 97.4728 61.333 96Z" fill="white"/>
</svg>
